<svg xmlns="http://www.w3.org/2000/svg" width="233" height="145" fill="none"><ellipse fill="#EAF1F9" rx="113.4" ry="7.3" transform="matrix(1 0 0 -1 119.4 137)"/><path fill="#BECDDF" d="M121.5 138.5a2.6 2.6 0 0 0 4.5-2.8l-4.5 2.8zM84.5 73l2.3-1.4-2.3-3.7-2.2 3.7 2.2 1.4zm-41.4 63.6a2.6 2.6 0 1 0 4.5 2.7l-4.5-2.7zm38.8-3.8a2.6 2.6 0 1 0 5.3 0h-5.3zm44 3L87 71.5l-4.6 2.8 39.2 64 4.5-2.7zM82.4 71.5l-39.2 65 4.5 2.7 39.2-65-4.5-2.7zm-.4 1.4v59.8h5.3V73h-5.3z"/><path fill="#000" fill-opacity=".2" d="M103.9 107.8c-1.3 0-1.7-.6-1.7-.8l6-.6c1 0 0 .8-.3.8s-2.4.6-4 .6zM82.2 107.2c-.7-.2-.5-.4-.3-.5l5.3-.5c.6 0 0 .8-1 1.3-1.1.5-3.2 0-4-.3zM64 107.5c-3 0-3.3-.5-3-.8l6.4-.5c.1.4-.5 1.3-3.5 1.3z"/><path fill="#D0DDEE" d="M.6 13.6h167.5v93.6H.6z"/><path fill="#B9D2E8" d="M30.8 106.7a42895.7 42895.7 0 0 1 135.7.4H24c-2.3 0 1.6-.4 6.9-.4zM1.1 101.4a17568.2 17568.2 0 0 1 .4-86.8c0 2 .2 89.7.1 91.1 0 1.5-.4-1-.5-4.3zM167.4 102.1c-.2-3.3.2-82 .4-84.7 0-2.7.4-4.2.4-2 0 2 .2 89.6.1 91-.1 1.5-.8-1-1-4.3zM8.1 12.6c5.2-.2 128.3.6 132.6.8 4.2.3 6.5.8 3.2.8-3.2 0-140.3.6-142.6.3C-1 14.2 2.9 13 8 12.6z"/><path fill="#F0F3FA" d="M.6 7a7 7 0 0 1 7-7h153.6a7 7 0 0 1 6.9 7v6.6H.6V6.9z"/><path fill="#B9D2E8" fill-opacity=".2" fill-rule="evenodd" d="M29 94.8c-.7 1.8-3 5.5-7.8 5.8A9.6 9.6 0 0 1 11 92.3c-.8-4.6.5-8.5 6.4-10.7 5.8-2.2 11.4 1.4 12 5.2l.2 1.9c.4 2.3.5 3.2-.5 6.1zm-7.8 5a8.3 8.3 0 0 0 7.3-5.4c1-2.7 1-3.6.6-5.8l-.3-1.7c-.5-3.6-5.8-7-11.3-5-5.6 2.2-6.8 5.8-6 10.2.7 4.4 4.2 8 9.7 7.7z" clip-rule="evenodd"/><path fill="#B9D2E8" fill-opacity=".2" fill-rule="evenodd" d="M29 94.8c-.7 1.8-3 5.5-7.8 5.8A9.6 9.6 0 0 1 11 92.3c-.8-4.6.5-8.5 6.4-10.7 5.8-2.2 11.4 1.4 12 5.2l.2 1.9c.4 2.3.5 3.2-.5 6.1zm-7.8 5a8.3 8.3 0 0 0 7.3-5.4c1-2.7 1-3.6.6-5.8l-.3-1.7c-.5-3.6-5.8-7-11.3-5-5.6 2.2-6.8 5.8-6 10.2.7 4.4 4.2 8 9.7 7.7z" clip-rule="evenodd"/><ellipse cx="20.6" cy="90.3" fill="#fff" filter="url(#filter0_d)" rx="9.6" ry="9.3"/><path fill="#57B038" d="M22 95.3c.3 0 .6-.3.6-.6v-1.3h.4c.2 0 .4-.2.4-.4v-4h-4.8v4c0 .2.2.4.4.4h.4v1.3c0 .3.3.6.6.6s.6-.3.6-.6v-1.3h.8v1.3c0 .3.3.6.6.6zM24.4 93c.3 0 .6-.3.6-.6v-2.7c0-.3-.3-.6-.6-.6s-.6.3-.6.6v2.7c0 .3.3.6.6.6zM17.6 93c.3 0 .6-.3.6-.6v-2.7c0-.3-.3-.6-.6-.6s-.6.3-.6.6v2.7c0 .3.3.6.6.6zM22.9 86h-.3l-.5.6c-.4-.2-.7-.2-1.1-.2-.4 0-.8 0-1 .2h-.1l-.6-.5c0-.1-.1-.1-.2 0-.1 0-.1.2 0 .2l.5.5-.5.4c-.3.4-.5.9-.5 1.4v.1h4.8v-.1a2.3 2.3 0 0 0-1-1.8l.5-.5v-.2zm-3 2a.3.3 0 0 1-.2-.3c0-.1.1-.3.3-.3.2 0 .3.2.3.3 0 .2-.1.3-.3.3zm2 0a.3.3 0 0 1-.2-.3c0-.1.1-.3.3-.3l.3.3c0 .2-.2.3-.3.3z"/><path fill="#B6D1E6" d="M108 34.5c-1.4 0-1.7-.7-1.7-1l17.2-.6c.2.5.4 1.7 0 1.7l-4.4.2-11-.3z"/><path fill="#fff" d="M125 34.4h-1l-18-.2c-.6 0-.4-2.6 0-2.6h19c.7 0 .3 2.8 0 2.8z"/><path fill="#B6D1E6" d="M109.6 41c-2.3 0-2.8-.7-2.8-1l28.3-.7c.3.6.6 1.7-.1 1.7l-7.2.3-18.2-.4z"/><path fill="#fff" d="M137.6 40.8h-1.8l-29.6-.2c-1 0-.6-2.5 0-2.5h31.4c1.2 0 .5 2.7 0 2.7z"/><path fill="#B6D1E6" d="M110.6 28.1c-2.9 0-3.5-.7-3.5-1l35.7-.7c.4.6.8 1.8-.1 1.8l-9 .2-23-.3z"/><path fill="#fff" d="M146 28h-2.3l-37.4-.2c-1.1 0-.7-2.6 0-2.6H146c1.5 0 .6 2.8 0 2.8z"/><path fill="#B9D2E8" fill-opacity=".2" fill-rule="evenodd" d="M98.4 38c-.7 1.8-3 5.5-7.8 5.8a9.6 9.6 0 0 1-10.3-8.3c-.8-4.6.5-8.5 6.4-10.7 5.8-2.2 11.4 1.4 12 5.2l.2 1.9c.4 2.3.5 3.2-.5 6zm-7.8 5a8.3 8.3 0 0 0 7.3-5.4c1-2.8 1-3.6.6-5.8l-.3-1.7c-.5-3.6-5.8-7-11.3-5-5.6 2.1-6.8 5.8-6 10.2.7 4.3 4.2 8 9.7 7.7z" clip-rule="evenodd"/><path fill="#B9D2E8" fill-opacity=".2" fill-rule="evenodd" d="M98.4 38c-.7 1.8-3 5.5-7.8 5.8a9.6 9.6 0 0 1-10.3-8.3c-.8-4.6.5-8.5 6.4-10.7 5.8-2.2 11.4 1.4 12 5.2l.2 1.9c.4 2.3.5 3.2-.5 6zm-7.8 5a8.3 8.3 0 0 0 7.3-5.4c1-2.8 1-3.6.6-5.8l-.3-1.7c-.5-3.6-5.8-7-11.3-5-5.6 2.1-6.8 5.8-6 10.2.7 4.3 4.2 8 9.7 7.7z" clip-rule="evenodd"/><ellipse cx="89.5" cy="33.5" fill="#fff" filter="url(#filter1_d)" rx="9.4" ry="9.4"/><path fill="url(#paint0_linear)" d="M89.5 29c-2.3 0-2.2 1-2.2 1v1h2.2v.4h-3s-1.5-.2-1.5 2.1c0 2.3 1.3 2.3 1.3 2.3h.8v-1.1s0-1.3 1.2-1.3h2.2s1.2 0 1.2-1.2v-2S92 29 89.5 29zm-1.2.7c.2 0 .4.2.4.4a.4.4 0 1 1-.8 0c0-.2.2-.4.4-.4z"/><path fill="url(#paint1_linear)" d="M89.6 38c2.3 0 2.1-1 2.1-1v-1h-2.2v-.3h3.1s1.5.2 1.5-2.2c0-2.3-1.3-2.2-1.3-2.2H92v1s0 1.4-1.2 1.4h-2.2s-1.3 0-1.3 1.1v2s-.1 1.2 2.3 1.2zm1.2-.6a.4.4 0 0 1-.4-.4.4.4 0 1 1 .8 0c0 .2-.2.4-.4.4z"/><path fill="#B9D2E8" fill-opacity=".2" fill-rule="evenodd" d="M68.7 93.8c-.6 1.8-3 5.5-7.7 5.8a9.6 9.6 0 0 1-10.4-8.3c-.8-4.6.5-8.5 6.4-10.7 5.8-2.2 11.4 1.4 12 5.2l.2 1.9c.4 2.3.6 3.2-.5 6.1zm-7.7 5a8.3 8.3 0 0 0 7.3-5.4c1-2.8.8-3.6.5-5.8l-.3-1.7c-.5-3.6-5.8-7-11.3-5-5.5 2.2-6.8 5.8-6 10.2.7 4.3 4.2 8 9.8 7.7z" clip-rule="evenodd"/><path fill="#B9D2E8" fill-opacity=".2" fill-rule="evenodd" d="M68.7 93.8c-.6 1.8-3 5.5-7.7 5.8a9.6 9.6 0 0 1-10.4-8.3c-.8-4.6.5-8.5 6.4-10.7 5.8-2.2 11.4 1.4 12 5.2l.2 1.9c.4 2.3.6 3.2-.5 6.1zm-7.7 5a8.3 8.3 0 0 0 7.3-5.4c1-2.8.8-3.6.5-5.8l-.3-1.7c-.5-3.6-5.8-7-11.3-5-5.5 2.2-6.8 5.8-6 10.2.7 4.3 4.2 8 9.8 7.7z" clip-rule="evenodd"/><rect width="18.6" height="18.6" x="50" y="80" fill="#fff" filter="url(#filter2_d)" rx="9.3"/><path fill="#236DF2" d="M60.2 90.8c.3.5.7.8 1.4.8.6 0 1-.3 1-.7 0-.4-.4-.6-1-.9l-.4-.1c-1-.4-1.7-1-1.7-2 0-1.1.8-1.9 2-1.9 1 0 1.6.3 2 1.1l-1 .7c-.3-.4-.5-.6-1-.6-.4 0-.6.2-.6.6 0 .4.2.6.8.8l.4.2c1.2.5 1.9 1 1.9 2.1 0 1.2-1 2-2.4 2-1.3 0-2.1-.7-2.6-1.5l1.2-.6zm-5 0c.2.5.4.8.9.8.4 0 .7-.2.7-.9v-4.6h1.5v4.7c0 1.4-.9 2-2.2 2-1.1 0-1.8-.5-2.1-1.2l1.2-.7z"/><path fill="#B6D1E6" d="M111.2 63.2c-3.5 0-4.3-.6-4.3-1l43.7-.6c.4.5.9 1.7-.2 1.7l-11 .2-28.2-.3z"/><path fill="#fff" d="M154.5 63.1h-2.8L106 63c-1.4 0-1-2.6 0-2.6h48.5c1.8 0 .7 2.8 0 2.8z"/><path fill="#B6D1E6" d="M109.5 69.6c-2.5 0-3.1-.6-3-1L138 68c.3.6.6 1.7-.2 1.7l-8 .3-20.3-.4z"/><path fill="#fff" d="M140.8 69.5h-2l-33-.2c-1.1 0-.7-2.5 0-2.5h35c1.3 0 .5 2.7 0 2.7z"/><path fill="#B6D1E6" d="M110.1 56.8c-2.9 0-3.5-.7-3.5-1l35.7-.7c.4.6.8 1.8-.1 1.8l-9 .2-23-.3z"/><path fill="#fff" d="M145.5 56.7h-2.3l-37.4-.2c-1.1 0-.7-2.6 0-2.6h39.7c1.5 0 .6 2.8 0 2.8z"/><path fill="#B9D2E8" fill-opacity=".2" fill-rule="evenodd" d="M98.4 66.2c-.7 1.8-3 5.5-7.8 5.7a9.6 9.6 0 0 1-10.3-8.2c-.8-4.7.5-8.5 6.4-10.7 5.8-2.2 11.4 1.4 12 5.2l.2 1.9c.4 2.3.5 3.2-.5 6zm-7.8 5a8.3 8.3 0 0 0 7.3-5.5c1-2.7 1-3.5.6-5.7l-.3-1.7c-.5-3.7-5.8-7-11.3-5-5.6 2.1-6.8 5.7-6 10.1.7 4.4 4.2 8 9.7 7.8z" clip-rule="evenodd"/><path fill="#B9D2E8" fill-opacity=".2" fill-rule="evenodd" d="M98.4 66.2c-.7 1.8-3 5.5-7.8 5.7a9.6 9.6 0 0 1-10.3-8.2c-.8-4.7.5-8.5 6.4-10.7 5.8-2.2 11.4 1.4 12 5.2l.2 1.9c.4 2.3.5 3.2-.5 6zm-7.8 5a8.3 8.3 0 0 0 7.3-5.5c1-2.7 1-3.5.6-5.7l-.3-1.7c-.5-3.7-5.8-7-11.3-5-5.6 2.1-6.8 5.7-6 10.1.7 4.4 4.2 8 9.7 7.8z" clip-rule="evenodd"/><ellipse cx="89.8" cy="61.7" fill="#fff" filter="url(#filter3_d)" rx="9.4" ry="9.4"/><path fill="url(#paint2_linear)" d="M91.6 64.4c-1 .6-2.4.7-3.9 0a6.1 6.1 0 0 1-2.7-2.3l1 .6c1.5.7 3 .7 4 0a21.4 21.4 0 0 1-3.7-3.9l-.5-.6 3.6 2.7a26.6 26.6 0 0 1-2.5-3.2 25.1 25.1 0 0 0 4.3 3.6l.1-.4c.4-1.3 0-2.7-.9-3.9 2 1.2 3.2 3.5 2.7 5.4v.2c1 1.2.7 2.6.6 2.3-.6-1-1.5-.7-2-.5z"/><path fill="#B6D1E6" d="M108.8 91.9c-2.4 0-2.9-.7-2.9-1l28.8-.7c.3.6.6 1.8-.1 1.8l-7.3.2-18.5-.3z"/><path fill="#fff" d="M137.3 91.8h-1.9l-30.1-.2c-1 0-.6-2.6 0-2.6h32c1.2 0 .5 2.8 0 2.8z"/><path fill="#B6D1E6" d="M109.2 98.3c-2.6 0-3.2-.7-3.2-1l31.6-.6c.3.5.7 1.7-.1 1.7l-8 .2-20.3-.3z"/><path fill="#fff" d="M140.4 98.2h-2l-33-.2c-1 0-.7-2.6 0-2.6h35c1.4 0 .6 2.8 0 2.8z"/><path fill="#B6D1E6" d="M108 85.5c-1.9 0-2.3-.7-2.3-1l23.2-.7c.2.6.5 1.8-.1 1.8l-5.8.2-15-.3z"/><path fill="#fff" d="M131 85.4h-1.5l-24.3-.3c-.8 0-.5-2.5 0-2.5H131c1 0 .4 2.8 0 2.8z"/><path fill="#B9D2E8" fill-opacity=".2" fill-rule="evenodd" d="M98.5 94.8c-.6 1.9-3 5.6-7.7 5.8a9.6 9.6 0 0 1-10.4-8.2c-.8-4.7.6-8.5 6.4-10.7 5.8-2.2 11.4 1.3 12 5.2l.2 1.8c.4 2.3.6 3.2-.5 6.1zm-7.7 5a8.3 8.3 0 0 0 7.3-5.4c1-2.7.8-3.6.5-5.7l-.3-1.8c-.5-3.6-5.8-7-11.3-4.9-5.5 2.1-6.8 5.7-6 10.1.7 4.4 4.2 8 9.8 7.7z" clip-rule="evenodd"/><path fill="#B9D2E8" fill-opacity=".2" fill-rule="evenodd" d="M98.5 94.8c-.6 1.9-3 5.6-7.7 5.8a9.6 9.6 0 0 1-10.4-8.2c-.8-4.7.6-8.5 6.4-10.7 5.8-2.2 11.4 1.3 12 5.2l.2 1.8c.4 2.3.6 3.2-.5 6.1zm-7.7 5a8.3 8.3 0 0 0 7.3-5.4c1-2.7.8-3.6.5-5.7l-.3-1.8c-.5-3.6-5.8-7-11.3-4.9-5.5 2.1-6.8 5.7-6 10.1.7 4.4 4.2 8 9.8 7.7z" clip-rule="evenodd"/><ellipse cx="89.5" cy="90.3" fill="#fff" filter="url(#filter4_d)" rx="9.4" ry="9.4"/><path fill="#61DAFB" d="M85.6 90.3c0-.5.6-1 1.6-1.3-.2-1-.1-1.7.3-2h.3v.3h-.1c-.2.2-.3.6-.3 1.2l.1.4 1-.1.6-.8c-.5-.4-1-.7-1.3-.7V87c.5 0 1 .3 1.6.8.5-.5 1.1-.8 1.5-.8v.3c-.3 0-.8.3-1.3.7l.7.8 1 .1v-.4c0-.6 0-1-.2-1.1h-.2V87h.4c.4.3.5 1 .3 2 1 .3 1.6.8 1.6 1.3s-.7 1-1.6 1.2c.2 1 0 1.7-.3 2h-.4c-.4 0-1-.3-1.5-.8-.6.5-1.1.8-1.6.8h-.3c-.4-.3-.5-1-.3-2-1-.3-1.6-.7-1.6-1.2zm2-1l.2.6a7 7 0 0 1 .4-.7h-.6zm.7 1.6l.4.5a8.2 8.2 0 0 0 1.4 0 8.2 8.2 0 0 0 .7-1.1A7.7 7.7 0 0 0 90 89a8.2 8.2 0 0 0-1.4 0 8.2 8.2 0 0 0-.7 1.2l.3.6zm-.5-.2l-.2.6h.6a8.1 8.1 0 0 1-.4-.6zm1.6 1.6l.4-.5a9.8 9.8 0 0 1-.8 0c0 .2.2.3.4.5zm1.1-1h.7l-.3-.6a7 7 0 0 1-.4.7zm-1.1-3l-.4.4a10 10 0 0 1 .8 0l-.4-.4zm1.1.9a8.2 8.2 0 0 1 .4.7l.3-.6-.7-.1zM92 91c.6-.2 1-.5 1-.7 0-.3-.4-.6-1-.8l-.4-.1-.4.9.4.9.4-.2zm-.8 2.2c.2-.2.3-.6.2-1.2v-.4l-1 .2-.7.7c.5.5 1 .7 1.3.7h.2zM87.4 92c0 .6 0 1 .3 1.2h.1c.4 0 .8-.3 1.3-.7l-.6-.7-1-.2v.4zm-.6-1l.5.2.3-1a7 7 0 0 1-.3-.8 5 5 0 0 0-.5.1c-.5.2-.8.5-.8.8 0 .2.3.5.8.7z"/><path fill="#61DAFB" d="M89.4 91a.7.7 0 0 1-.7-.7c0-.4.3-.7.7-.7a.7.7 0 0 1 0 1.4z"/><mask id="a" width="48" height="48" x="19" y="17" maskUnits="userSpaceOnUse"><ellipse cx="43.2" cy="41.5" fill="#85DEC8" rx="23.5" ry="23.5"/></mask><g mask="url(#a)"><path fill="#B2CAEA" stroke="#fff" stroke-width="1.2" d="M66 41.6a22.9 22.9 0 1 1-45.8 0 22.9 22.9 0 0 1 45.8 0z"/><path fill="#236DF2" d="M65.3 72.7c-8.9 2.6-26.8 6.5-27.3 1.4-.4-4.6.4-14.6 1-20.6a93 93 0 0 1-7.8-1.9c-2.5-.8 2.3-8.5 3.7-10.4 1.5-2 6-4.6 6.7-4.9.8-.2 1.2-1.4 1.6-1.5.8-.2 4 .6 5.7.3 1.7-.3 4.7-1.3 7.6-.3 2.8 1 4 2.5 5.2 3.7 2 3.3 3.1 7 2.6 7.5-.8.7-4.5.7-4.4 1.3l5.4 25.4z"/><path fill="url(#paint3_linear)" d="M58.3 48c-.2 2.5 5.7 5.6 6.4 8.2-.2.5-5.4 3.2-5.4 3.6 0 .6-1.7.2-2.2.2-.5 0-10.3-1.5-10.7-4-.4-2.4 4-20.3 6-20.6 2.1-.3 4.8.5 7 1-3.5 6.5-.8 8.7-1.1 11.7z"/><path fill="url(#paint4_linear)" d="M37.8 43.6c1.9 1.5 1.7 6.2 1.4 8.4 0 .2-5.4-.2-8-.4a.9.9 0 0 1-.6-.5c-.1-.4-.2-1.2.2-2.2.4-1 1.8-4.5 2.4-5.3.7-.7 2.3-1.8 4.6 0z"/></g><path fill="#F1B181" d="M39.2 52c-2.3-1.8-6.4-1.8-8-1.6 0 1.1 0 4.4.3 8.6.4 5.2 3.4 6.8 5.2 7.8 1.7 1 11.2 3.3 11.6 3.3.5 0 1.5 1 2.5 1.5 1 .4 3.7 0 4.4-.2.7-.2-3-1.2-3.6-1.8-.4-.6-.1-.4 1-.5 1.1-.2.7-1 .7-1.1 0-.2-1.9-.2-3 0-1.1.1-2.2-1.5-7-4.4-4.8-3-4.2-4.3-4.4-5.4-.1-1.2.4-5.8.3-6.2zM58.1 46.6c.1-2.2 5.3-2.8 6-1.7.6 1.2 2 8.4 2 10.4s.7 7.8 1 8c.2.3 1 1.5.8 3.3 0 1.7-.7 1.2-1.3 1.2-.5 0 .2-2.2 0-1.6-.4.7-1.8 1.2-1.3.4.6-.8-2.8-1-1.8-2.3 1-1.3-.6-5.2-1.1-7.8-.5-2.6-4.4-7.1-4.3-9.9z"/><ellipse fill="#fff" filter="url(#filter5_d)" rx="7.8" ry="7.8" transform="rotate(-8.1 516.3 -389.5)"/><path fill="#0074BD" d="M58.3 70.4v.2-.2zm0 0a1 1 0 0 0-.4.2v.2l.1.2.4.1c.7.2 1.8.2 2.7-.2a3.7 3.7 0 0 1-.5-.3c-.9.2-1.3.2-2 .1l-.3-.3zM60.9 69.6c-1.1.2-1.8.2-2.6.1H58v-.1-.2l-.4.2v.2l.2.2h.4c.7.2 2 .2 3-.1h.1a1.2 1.2 0 0 1-.4-.3zm0 0s.1.2.4.3l-3.3-.5s-.2.3.3.3a8 8 0 0 0 2.6 0z"/><path fill="#EA2728" d="M60 67.6l.2.4v.3a1 1 0 0 1-.3.3 1.8 1.8 0 0 0 .2 0c0-.2.2-.3.3-.4.2-.1.3-.3.3-.4l-.1-.6h-.1l-.3-.5v-.4c0-.2.2-.3.4-.6a8 8 0 0 1 1.2-.7 4.1 4.1 0 0 0-.5.1l-1 .5c-.3.2-.6.5-.7.8 0 .3 0 .7.4 1.2z"/><path fill="#0074BD" d="M62.5 71.2h.2V71.6l-.1.1-1.3.4c-1.1.2-2.9.3-4.8 0l-.4-.2-.1-.1v-.2l.3-.1a2.7 2.7 0 0 1 1-.3H57.5l-.3.1a2.1 2.1 0 0 0-.5.2v.2l5.8-.4zm0 0V71.5v-.3zm-.3.4a15.8 15.8 0 0 1-4.4.2 4 4 0 0 1-1-.2h5.4zM58.5 68.3zm0 0H58l-1 .3m1.5-.3a8.2 8.2 0 0 0-1 .3v.1l.4.1a13.4 13.4 0 0 0 3.6-.2h.1m0 0zm0 0a4 4 0 0 0-.4.3 11.6 11.6 0 0 1-4.3 0h-.1v-.2h.2m0 0zm1.4-.4c-.3 0-1.6.4-.5.6l.5-.6zM61.6 70v.1l1.3-.6.3-.7c-.1-.5-.6-.8-1.2-.6a.3.3 0 0 0-.2.2 1 1 0 0 1 .2 0c.3-.1.7 0 .7.4 0 .3-.2.8-1 1.2z"/><path fill="#EA2728" d="M60.5 63v1l-.6.7a9.5 9.5 0 0 1-.8.7l-.7.6-.1.6c0 .1 0 .3.2.5.2.4.6.8 1 1.2h.1l-.3-.6-.4-.6v-.7c0-.3.3-.5.7-.9 1-.7 1.2-1.4 1.2-1.8a1.1 1.1 0 0 0-.2-.7z"/><path fill="#0074BD" d="M57.3 72.3l.2.1 1.2.2 2.8-.1c.5 0 .9-.2 1.2-.3.3-.1.5-.3.5-.5l-.3.2-1.2.3c-1.5.3-3.3.3-4.4.1zm0 0z"/><path fill="#F1B181" d="M53.3 68c0-.2-1.9-.2-3 0l1.2 1.2 1-.1c1.2-.2.8-1 .8-1.1zM65.6 66.4c.4 0 .9-1.5 1.4-2.4-.5 0-1.7-1.3-1.6-.5.1.8 0 1.7-.2 2-.6 1 .1 1 .4.9zM50.2 37c-.6.8-2.2.6-3 .4-1-.1-2.7-1.5-2.9-2.2l.4-2.2c.2-1.1 0-2.6-.2-3.1-.2-1-.5-3.4-.5-5 .1-2 5-3.2 7.1-3.3 2.2 0 1.4 6 1.5 7.3 0 1-1.3 3.9-2 5.2 0 .6 0 2-.4 2.8z"/><path fill="#22173F" d="M50.5 30.2c-.3.4-.7.3-.7.1 0-.1.2 0 .5-.3.2-.4-.2-1 0-1 0 0 .5 1 .2 1.2z"/><path fill="#22173F" d="M49.2 18c2.8-.4 3.8 2.6 4.9 4 4.4 5.9-2.5 6.6-6.6 3.1-1.3-1-2.8 1-2.9 2.4-.1 1 .9 3 0 3.1-1.7-2-3.5-7.7-1.3-10 .9-.8 1.9-.6 2.3-.6.3 0 .2-1.7 3.6-2z"/><path fill="#000" fill-opacity=".1" d="M48.1 35c1.3.3 2.2-.5 2.5-1 0 1.6-2 1.8-2.9 1.5-.9-.4-1.6-1.6-1.9-2.2a4 4 0 0 0 2.3 1.7z"/><path fill="#F1B080" d="M192.7 45.5c-3.6.4-3.7-.3-3.7-2v-2.8c0-2.4.2-5.6.7-6.4.7-1 2.4-.8 5.6-1 3.2 0 3.5 2.1 3.2 3.2l.2 6c0 1.5.3 4.6.6 5.6.4 1.4-1.5 1.6-2.8 3.5-1.3 1.9-2.7 2.1-3.6 1.3-.9-.8-.2-6-.2-7.4z"/><path fill="#22173F" d="M189.4 34.4c0 .3 2.8.2 4 .2 0 .5-.4 1.9-.3 2.6.2.8.6 1.1.8 1.3.2.2-.2 1.3-.1 1.7-.1.3-.3.8-.5.8-.3 0-3.1-.1-4.4-.3-.1 1 0 2.9.1 3.8.2 1.2 2 1.3 3 1 1-.4 3-1.1 3.2-2.8a6 6 0 0 0-.2-2.5c0-.2.3-1.7 1.1-2 .9-.1 1.6 2 1.5 3.2-.2 1.2-1.7 1-1.3 2.3.3 1.1 2.4.7 2.8.7.3 0 1.3-6.6 1-8.4-.5-1.9-2-4.2-5.7-4.1-3.8 0-5 2.1-5 2.5z"/><path fill="#236DF2" d="M200.3 134.8c1-1.5 1.5-2.9 1.3-3.6l.5-2.5c-.1 1.3-.3 3.7 1.3 4.5 2 .8 3 2.6 2.9 3.5-.2 1-2.9 1-3.8 1-.9 0-4.1 0-2.2-3zM193.9 135.8c.1 1-1.5 1.5-3 1.5-1.4 0-3.7 0-3.7-1.1 0-1.6 2.1-3.3 2.7-4l.8-2.4v-1c.5-1.1.4-.3 0 1 .3 2.3 3 5 3.2 6z"/><path fill="#3D2D6C" d="M186.8 103c0-12.2-1.9-24.9.7-29.3 2.7-4.5 20-.4 20.8 2.6.7 3-.7 7.7-.7 11 0 3.2-1.8 41.3-1.8 45 0 1.9-2.2 3-5 1.9-3-1-2.2-38.5-4.4-37.4-2.2 1-2 26-2 30.2 0 4.3-.7 7.4-4.9 6.8-5-.6-2.7-15.6-2.7-30.8z"/><path fill="#236DF2" d="M209.9 72.8c-1.6 0-1.5 6.8-2 6.4.3-.9.7 0-1-.9-2.2-1-18.3 2.2-20-1.4-1.9-3.6.7-22.8-1.1-22.8-1 .1-1.8-.5-3.3-.7.5-.3.2-5.2-.5-6.6 2.5-.4 6.8 0 7.4 0 1.4.2 2.9 1.1 5.7 1.6 2.8.5 6.7-1 10.7-.5 4 .5 5.9 8 5.7 10.5-.1 2.4.4 14.4-1.6 14.4z"/><path fill="#558FF6" d="M199.3 54.7c.4-.2 2.8 0 4.3.2.2.8.3 2.6-.8 3.8-.8.8-2.1.6-2.8-.3-.7-.8-1.1-3.4-.7-3.7z"/><path fill="#F1B181" d="M206 59.9c-.1-1 3 1 5-1.7 1.3-1.7.5 13.9.3 15.6-.3 1.8-.7 3.7-1 3.8 0 1.5.2 4.3-.3 4.8-.6.6-2 1.7-2.5 1.2-.8-.8-.8-5 .8-6.3-.7.6-1.8-10.5-2.4-17.4zM162.7 44.4a59.1 59.1 0 0 0 19.4 2.4c.8 1.4 1 6.3.4 6.6-7.1-.8-18.3-6-20.4-6.2 0 0-2.4 0-3.6-.7-1.2-.8-.5-1.9-.5-2.6 0-.7-.7-.7-1.5-1-.8-.3-.5-1.3.4-.7l5.8 2.2z"/><defs><filter id="filter0_d" width="27.4" height="26.9" x="6.9" y="78" color-interpolation-filters="sRGB" filterUnits="userSpaceOnUse"><feFlood flood-opacity="0" result="BackgroundImageFix"/><feColorMatrix in="SourceAlpha" values="0 0 0 0 0 0 0 0 0 0 0 0 0 0 0 0 0 0 127 0"/><feOffset dy="1.2"/><feGaussianBlur stdDeviation="2.1"/><feColorMatrix values="0 0 0 0 0 0 0 0 0 0 0 0 0 0 0 0 0 0 0.04 0"/><feBlend in2="BackgroundImageFix" result="effect1_dropShadow"/><feBlend in="SourceGraphic" in2="effect1_dropShadow" result="shape"/></filter><filter id="filter1_d" width="28.3" height="28.3" x="75.3" y="20.7" color-interpolation-filters="sRGB" filterUnits="userSpaceOnUse"><feFlood flood-opacity="0" result="BackgroundImageFix"/><feColorMatrix in="SourceAlpha" values="0 0 0 0 0 0 0 0 0 0 0 0 0 0 0 0 0 0 127 0"/><feOffset dy="1.4"/><feGaussianBlur stdDeviation="2.4"/><feColorMatrix values="0 0 0 0 0 0 0 0 0 0 0 0 0 0 0 0 0 0 0.04 0"/><feBlend in2="BackgroundImageFix" result="effect1_dropShadow"/><feBlend in="SourceGraphic" in2="effect1_dropShadow" result="shape"/></filter><filter id="filter2_d" width="27" height="27.1" x="45.8" y="77" color-interpolation-filters="sRGB" filterUnits="userSpaceOnUse"><feFlood flood-opacity="0" result="BackgroundImageFix"/><feColorMatrix in="SourceAlpha" values="0 0 0 0 0 0 0 0 0 0 0 0 0 0 0 0 0 0 127 0"/><feOffset dy="1.2"/><feGaussianBlur stdDeviation="2.1"/><feColorMatrix values="0 0 0 0 0 0 0 0 0 0 0 0 0 0 0 0 0 0 0.04 0"/><feBlend in2="BackgroundImageFix" result="effect1_dropShadow"/><feBlend in="SourceGraphic" in2="effect1_dropShadow" result="shape"/></filter><filter id="filter3_d" width="29.9" height="29.9" x="74.9" y="48.3" color-interpolation-filters="sRGB" filterUnits="userSpaceOnUse"><feFlood flood-opacity="0" result="BackgroundImageFix"/><feColorMatrix in="SourceAlpha" values="0 0 0 0 0 0 0 0 0 0 0 0 0 0 0 0 0 0 127 0"/><feOffset dy="1.6"/><feGaussianBlur stdDeviation="2.8"/><feColorMatrix values="0 0 0 0 0 0 0 0 0 0 0 0 0 0 0 0 0 0 0.04 0"/><feBlend in2="BackgroundImageFix" result="effect1_dropShadow"/><feBlend in="SourceGraphic" in2="effect1_dropShadow" result="shape"/></filter><filter id="filter4_d" width="28.4" height="28.4" x="75.2" y="77.5" color-interpolation-filters="sRGB" filterUnits="userSpaceOnUse"><feFlood flood-opacity="0" result="BackgroundImageFix"/><feColorMatrix in="SourceAlpha" values="0 0 0 0 0 0 0 0 0 0 0 0 0 0 0 0 0 0 127 0"/><feOffset dy="1.4"/><feGaussianBlur stdDeviation="2.4"/><feColorMatrix values="0 0 0 0 0 0 0 0 0 0 0 0 0 0 0 0 0 0 0.04 0"/><feBlend in2="BackgroundImageFix" result="effect1_dropShadow"/><feBlend in="SourceGraphic" in2="effect1_dropShadow" result="shape"/></filter><filter id="filter5_d" width="25.6" height="25.6" x="47" y="57.2" color-interpolation-filters="sRGB" filterUnits="userSpaceOnUse"><feFlood flood-opacity="0" result="BackgroundImageFix"/><feColorMatrix in="SourceAlpha" values="0 0 0 0 0 0 0 0 0 0 0 0 0 0 0 0 0 0 127 0"/><feOffset dy="1.4"/><feGaussianBlur stdDeviation="2.5"/><feColorMatrix values="0 0 0 0 0 0 0 0 0 0 0 0 0 0 0 0 0 0 0.04 0"/><feBlend in2="BackgroundImageFix" result="effect1_dropShadow"/><feBlend in="SourceGraphic" in2="effect1_dropShadow" result="shape"/></filter><linearGradient id="paint0_linear" x1="85.9" x2="90.4" y1="29.8" y2="34.3" gradientUnits="userSpaceOnUse"><stop stop-color="#387EB8"/><stop offset="1" stop-color="#366994"/></linearGradient><linearGradient id="paint1_linear" x1="88.6" x2="93.5" y1="32.7" y2="37.3" gradientUnits="userSpaceOnUse"><stop stop-color="#FFE052"/><stop offset="1" stop-color="#FFC331"/></linearGradient><linearGradient id="paint2_linear" x1="89.4" x2="89.4" y1="57" y2="65" gradientUnits="userSpaceOnUse"><stop stop-color="#F88A36"/><stop offset="1" stop-color="#FD2020"/></linearGradient><linearGradient id="paint3_linear" x1="55.4" x2="66.1" y1="49.5" y2="49.2" gradientUnits="userSpaceOnUse"><stop stop-color="#236DF2"/><stop offset=".9" stop-color="#225ECB"/></linearGradient><linearGradient id="paint4_linear" x1="35.1" x2="42.6" y1="47" y2="45.1" gradientUnits="userSpaceOnUse"><stop stop-color="#236DF2"/><stop offset="1" stop-color="#19489E"/></linearGradient></defs></svg>